<svg width="128" height="128" viewBox="0 0 128 128" xmlns="http://www.w3.org/2000/svg" role="img" aria-labelledby="title desc">
  <title id="title">Default User Avatar</title>
  <desc id="desc">Abstract gradient circle with a subtle padlock silhouette.</desc>
  <defs>
    <radialGradient id="avatarGradient" cx="50%" cy="50%" r="70%">
      <stop offset="0%" stop-color="#3ec5ff" />
      <stop offset="45%" stop-color="#2b73ff" />
      <stop offset="100%" stop-color="#1626ff" />
    </radialGradient>
  </defs>
  <circle cx="64" cy="64" r="60" fill="url(#avatarGradient)" />
  <path d="M64 38c-9.4 0-17 7.6-17 17s7.6 17 17 17 17-7.6 17-17-7.6-17-17-17zm0 74c17.7 0 32-12.1 32-27H32c0 14.9 14.3 27 32 27z" fill="#ffffff" opacity="0.28" />
  <path d="M64 52c-5.2 0-9.5 4.3-9.5 9.5s4.3 9.5 9.5 9.5 9.5-4.3 9.5-9.5S69.2 52 64 52zm0 45c12.6 0 22.1-7.3 22.1-15.7 0-5.2-9.9-8.5-22.1-8.5s-22.1 3.3-22.1 8.5C41.9 89.7 51.4 97 64 97z" fill="#ffffff" opacity="0.55" />
</svg>
