<svg width="64" height="64" viewBox="0 0 64 64" xmlns="http://www.w3.org/2000/svg" role="img" aria-labelledby="title desc">
  <title id="title">User Manager Icon</title>
  <desc id="desc">Two overlapping silhouettes on a blue gradient square.</desc>
  <defs>
    <linearGradient id="userManagerBg" x1="0%" y1="0%" x2="100%" y2="100%">
      <stop offset="0%" stop-color="#4f8bff" />
      <stop offset="100%" stop-color="#3260ff" />
    </linearGradient>
  </defs>
  <rect x="4" y="4" width="56" height="56" rx="14" fill="url(#userManagerBg)" />
  <path d="M34 25c0 3.9-3.1 7-7 7s-7-3.1-7-7 3.1-7 7-7 7 3.1 7 7zm10 5c0 3.3-2.7 6-6 6s-6-2.7-6-6 2.7-6 6-6 6 2.7 6 6z" fill="#ffffff" opacity="0.9" />
  <path d="M45 46c0-5.3-6.3-8-12-8s-12 2.7-12 8v4h24v-4z" fill="#ffffff" opacity="0.88" />
  <path d="M52 46c0-3.6-3-5.6-6.5-6.7" stroke="#ffffff" stroke-width="2.2" stroke-linecap="round" opacity="0.6" />
</svg>
